<svg width="138" height="32" viewBox="0 0 138 32" fill="none" xmlns="http://www.w3.org/2000/svg">
<path d="M17.1743 0H26V14.3965C25.2912 20.1551 20.5478 21.9116 18.2647 22.0701H26V31H17.1743V23.3943C16.1111 21.8188 14.9594 22.5115 14.5164 23.0548L9.60944 31H0L5.72477 22.0701H13.017L1.29489 7.46988H11.5858L17.1743 14.3965V0Z" fill="#2D29EC"/>
<path d="M39.7 26H35.2V5.9H39.7V13.88H44.71L50.05 5.9H55.45L48.46 15.8L55.36 26H49.96L44.77 18.26H39.7V26ZM61.0867 9.44H56.5867V5.9H61.0867V9.44ZM61.0867 26H56.5867V10.97H61.0867V26ZM67.9422 26H63.4422V10.97H67.6122V15.59H67.8822C68.2722 13.07 70.0722 10.67 74.0022 10.67C78.1122 10.67 80.0622 13.31 80.0622 16.64V26H75.5622V18.14C75.5622 15.74 74.5722 14.72 71.8122 14.72C68.9622 14.72 67.9422 15.86 67.9422 18.41V26ZM90.3187 26.3C85.3087 26.3 81.8887 23.84 81.8887 18.5C81.8887 13.7 85.2787 10.67 90.2287 10.67C95.1487 10.67 98.4187 13.25 98.4187 17.96C98.4187 18.5 98.3587 18.89 98.2987 19.4H86.0587C86.1787 21.71 87.2587 22.7 90.1687 22.7C92.8387 22.7 93.7687 22.01 93.7687 20.72V20.42H98.2687V20.75C98.2687 24.02 95.0887 26.3 90.3187 26.3ZM90.1387 14.18C87.4687 14.18 86.3287 15.08 86.1187 17.03H94.0987C93.9787 15.05 92.7787 14.18 90.1387 14.18ZM110.917 26H107.197C103.687 26 101.557 24.35 101.557 20.57V14.69H99.187V10.97H101.557V8.06H106.057V10.97H110.917V14.69H106.057V20.06C106.057 21.56 106.627 21.95 108.217 21.95H110.917V26ZM117.102 9.44H112.602V5.9H117.102V9.44ZM117.102 26H112.602V10.97H117.102V26ZM125.968 26.3C121.468 26.3 118.918 23.27 118.918 18.5C118.918 13.73 121.498 10.67 126.118 10.67C129.658 10.67 131.578 12.2 132.118 15.08H132.418V10.97H136.618V31.1H132.118V21.95H131.878C131.368 24.59 129.448 26.3 125.968 26.3ZM123.478 18.5C123.478 21.23 124.828 22.19 127.708 22.19C130.558 22.19 132.118 21.29 132.118 18.71V18.47C132.118 15.8 130.588 14.81 127.708 14.81C124.828 14.81 123.478 15.74 123.478 18.5Z" fill="white"/>
</svg>
